# xmcd
#
# Track frame offsets: 
#        150
#        8208
#        39057
#        68498
#        101885
#        139950
#        168016
#        198225
#        228718
#
# Disc length: 3593 seconds
#
# Revision: 0
# Processed by: cddbd v1.5.2PL0 Copyright (c) Steve Scherf et al.
# Submitted via: ExactAudioCopy v1.0b1
#
DISCID=6d0e0709
DTITLE=Eric Clapton  - The Fifth Element - 1991-02-10 - London, Englan
DTITLE=d - Disc 1
DYEAR=1900
DGENRE=
TTITLE0=Layla Intro
TTITLE1=Pretending
TTITLE2=No Alibis
TTITLE3=Running On Faith
TTITLE4=I Shot the Sheriff
TTITLE5=White Room
TTITLE6=Can't Find My Way Home
TTITLE7=Can't Find My Way Home
TTITLE8=Before You Accuse Me
EXTD=
EXTT0=
EXTT1=
EXTT2=
EXTT3=
EXTT4=
EXTT5=
EXTT6=
EXTT7=
EXTT8=
PLAYORDER=
